# xmcd
#
# Track frame offsets:
#	150
#	15225
#	31275
#	49650
#	64725
#	81375
#	100950
#	118050
#	132300
#	145950
#	170025
#
# Disc length: 2287 seconds
#
# Revision: 0
# Processed by: cddbd v1.5.2PL0 Copyright (c) Steve Scherf et al.
# Submitted via: audiograbber 1.83.01
#
DISCID=9608ed0b
DTITLE=Here for the Party Karaoke - AKS10001
DYEAR=1900
DGENRE=Karaoke
TTITLE0=Wilson, Gretchen - Here For The Party
TTITLE1=Wilson, Gretchen - Redneck Woman
TTITLE2=Wilson, Gretchen - When I Think About Cheatin'
TTITLE3=Wilson, Gretchen - Homewrecker
TTITLE4=Wilson, Gretchen - Holdin' You
TTITLE5=Wilson, Gretchen - Chariot
TTITLE6=Wilson, Gretchen - What Happened
TTITLE7=Wilson, Gretchen - When It Rains
TTITLE8=Wilson, Gretchen - The Bed
TTITLE9=Wilson, Gretchen - Pocohantas Proud
TTITLE10=Data - Data Track
EXTD=
EXTT0=
EXTT1=
EXTT2=
EXTT3=
EXTT4=
EXTT5=
EXTT6=
EXTT7=
EXTT8=
EXTT9=
EXTT10=
PLAYORDER=
